<?xml version="1.0" encoding="UTF-8"?>
<svg width="159px" height="53px" viewBox="0 0 159 53" version="1.1" xmlns="http://www.w3.org/2000/svg" xmlns:xlink="http://www.w3.org/1999/xlink">
    <!-- Generator: Sketch 50.2 (55047) - http://www.bohemiancoding.com/sketch -->
    <title>Page 1</title>
    <desc>Created with Sketch.</desc>
    <defs>
        <polygon id="path-1" points="0.662693258 0.9405 82.7451152 0.9405 82.7451152 22.7889 0.662693258 22.7889"></polygon>
        <polygon id="path-3" points="0 53.68006 158.132756 53.68006 158.132756 0.99946 0 0.99946"></polygon>
    </defs>
    <g id="Page-1" stroke="none" stroke-width="1" fill="none" fill-rule="evenodd">
        <g id="kdo-jsme-1" transform="translate(-72.000000, -26.000000)">
            <g id="Page-1" transform="translate(72.000000, 25.000000)">
                <g id="Group-3" transform="translate(75.387640, 6.880060)">
                    <mask id="mask-2" fill="white">
                        <use xlink:href="#path-1"></use>
                    </mask>
                    <g id="Clip-2"></g>
                    <path d="M0.662693258,22.4163 L9.84203596,22.4163 C15.8730472,22.4163 17.9910809,19.3185 17.9910809,16.5951 C17.9910809,13.2111 14.9307017,11.7495 12.4716287,11.5785 L12.4716287,11.4903 C12.7013815,11.4327 13.1860163,11.2905 13.6150079,11.1465 C15.7312466,10.4301 17.0738646,9.0837 17.0738646,7.0461 C17.0738646,4.8681 15.4727747,2.3445 9.75587865,2.3445 L0.662693258,2.3445 L0.662693258,2.4309 L3.55075787,4.0653 L3.55075787,20.6955 L0.662693258,22.3299 L0.662693258,22.4163 Z M9.41304438,21.1257 C8.32530843,21.1257 7.66835899,20.8395 7.46912022,20.6955 L7.46912022,12.4947 L8.38274663,12.4947 C12.1575135,12.4947 13.7298843,14.6169 13.7298843,17.1117 C13.7298843,19.6353 11.757241,21.1257 9.41304438,21.1257 Z M7.46912022,11.2329 L7.46912022,3.7215 C7.66835899,3.6639 8.18350787,3.5775 8.8117382,3.5775 C11.4413309,3.5775 13.0442157,5.0679 13.0442157,7.6203 C13.0442157,9.6273 12.0713562,11.2329 8.7543,11.2329 L7.46912022,11.2329 Z M23.6343843,22.7889 C24.1495331,22.7889 24.4941624,22.7313 24.951873,22.6161 L28.0391764,20.8089 L28.0966146,20.8089 L28.0966146,22.7601 L28.1827719,22.7601 L33.9014629,21.4119 L33.9014629,21.3273 L31.5841904,20.2077 L31.5841904,11.8647 C31.5841904,9.3699 30.2110584,7.7067 27.3247888,7.7067 C25.9229376,7.7067 24.5210865,8.0505 23.9502944,8.2233 C22.8643534,8.5383 20.5758,9.2259 20.5758,11.0601 C20.5758,12.0933 21.4355781,12.9537 22.5215191,12.9537 C23.2071876,12.9537 23.9215753,12.6675 24.2662045,12.4947 L23.5500219,9.6273 C23.8372129,9.5139 24.8369966,9.1413 25.7811371,9.1413 C27.2960697,9.1413 27.954814,10.0305 27.954814,11.4057 L27.954814,14.1003 L23.2933449,15.2775 C20.9204292,15.8787 19.9493646,17.2251 19.9493646,19.0035 C19.9493646,20.9817 21.4912213,22.7889 23.6343843,22.7889 Z M25.4939461,20.4669 C24.2087663,20.4669 23.3795022,19.5777 23.3795022,18.4023 C23.3795022,17.3979 23.8641371,16.6527 25.4670219,16.1649 L27.954814,15.3909 L27.954814,19.7793 C27.3247888,20.0925 26.4380865,20.4669 25.4939461,20.4669 Z M34.1689096,22.4163 L42.429241,22.4163 L42.429241,22.3299 L40.1155584,20.8683 L40.1155584,11.2329 C40.9430275,10.5741 42.2587213,10.2303 43.2028618,10.2303 C44.7752326,10.2303 45.5757775,11.1753 45.5757775,12.7809 L45.5757775,20.8683 L43.2603,22.3299 L43.2603,22.4163 L51.5224264,22.4163 L51.5224264,22.3299 L49.2051539,20.8683 L49.2051539,11.9799 C49.2051539,9.3699 47.6920163,7.7067 44.9457522,7.7067 C44.2618787,7.7067 43.6300584,7.8219 43.0305472,7.9929 L40.0294011,10.1169 L39.9719629,10.1169 L39.9719629,7.7355 L39.8858056,7.7355 L34.1689096,9.1125 L34.1689096,9.1971 L36.4825921,10.3167 L36.4825921,20.8683 L34.1689096,22.3299 L34.1689096,22.4163 Z M52.0052663,22.4163 L60.2691876,22.4163 L60.2691876,22.3299 L57.9519152,20.8683 L57.9519152,0.9405 L57.8675528,0.9405 L52.0052663,2.3157 L52.0052663,2.4021 L54.3225388,3.5199 L54.3225388,20.8683 L52.0052663,22.3299 L52.0052663,22.4163 Z M63.5575247,22.4163 L68.0484742,22.4163 L61.7841202,13.5279 L67.4740921,8.1657 L67.4740921,8.0793 L61.184609,8.0793 L61.184609,8.1657 L63.7011202,9.7137 L58.468859,14.8167 L63.5575247,22.4163 Z M72.4801904,22.7889 C72.9935444,22.7889 73.3381736,22.7313 73.7958843,22.6161 L76.8831876,20.8089 L76.9424208,20.8089 L76.9424208,22.7601 L77.0267831,22.7601 L82.7454742,21.4119 L82.7454742,21.3273 L80.4282017,20.2077 L80.4282017,11.8647 C80.4282017,9.3699 79.0568646,7.7067 76.1688,7.7067 C74.7687438,7.7067 73.3668927,8.0505 72.7943056,8.2233 C71.7083646,8.5383 69.4198112,9.2259 69.4198112,11.0601 C69.4198112,12.0933 70.2795893,12.9537 71.3655303,12.9537 C72.0511989,12.9537 72.7673815,12.6675 73.1102157,12.4947 L72.3940331,9.6273 C72.6812242,9.5139 73.6810079,9.1413 74.6251483,9.1413 C76.1400809,9.1413 76.7988253,10.0305 76.7988253,11.4057 L76.7988253,14.1003 L72.1373562,15.2775 C69.7644404,15.8787 68.7933758,17.2251 68.7933758,19.0035 C68.7933758,20.9817 70.3370275,22.7889 72.4801904,22.7889 Z M74.3379573,20.4669 C73.0527775,20.4669 72.2235135,19.5777 72.2235135,18.4023 C72.2235135,17.3979 72.7081483,16.6527 74.3110331,16.1649 L76.7988253,15.3909 L76.7988253,19.7793 C76.1688,20.0925 75.2820978,20.4669 74.3379573,20.4669 Z" id="Fill-1" fill="#002C5A" mask="url(#mask-2)"></path>
                </g>
                <mask id="mask-4" fill="white">
                    <use xlink:href="#path-3"></use>
                </mask>
                <g id="Clip-5"></g>
                <path d="M0,53.68006 L67.541941,53.68006 L67.541941,0.99946 L0,0.99946 L0,53.68006 Z M24.0055787,15.16006 C24.0055787,18.80146 19.9166966,20.95246 16.6283596,20.95246 C15.8278146,20.95246 15.4275421,20.86606 15.3126657,20.83726 L15.3126657,20.00566 C17.9440534,20.00566 19.9166966,18.65746 19.9166966,15.44626 C19.9166966,12.23686 17.9996966,10.54486 15.1995843,10.54486 C14.6269972,10.54486 14.025691,10.62946 13.8264522,10.68886 L13.8264522,27.57466 L17.4001854,29.20906 L17.4001854,29.29726 L7.02182022,29.29726 L7.02182022,29.20906 L9.90988483,27.57466 L9.90988483,10.94626 L7.02182022,9.31186 L7.02182022,9.22546 L15.9408961,9.22546 C21.9754972,9.22546 24.0055787,12.03526 24.0055787,15.16006 Z M42.6747893,15.16006 C42.6747893,18.80146 38.5877022,20.95246 35.2993652,20.95246 C34.4970253,20.95246 34.0985478,20.86606 33.9836713,20.83726 L33.9836713,20.00566 C36.613264,20.00566 38.5877022,18.65746 38.5877022,15.44626 C38.5877022,12.23686 36.6707022,10.54486 33.8687949,10.54486 C33.2962079,10.54486 32.6966966,10.62946 32.4956629,10.68886 L32.4956629,27.57466 L36.0693961,29.20906 L36.0693961,29.29726 L25.6928258,29.29726 L25.6928258,29.20906 L28.5790955,27.57466 L28.5790955,10.94626 L25.6928258,9.31186 L25.6928258,9.22546 L34.6136966,9.22546 C40.6447079,9.22546 42.6747893,12.03526 42.6747893,15.16006 Z M60.1449775,15.53266 L60.0588202,15.53266 L56.8566404,10.60066 L51.1666685,10.60066 L51.1666685,18.31366 L54.6560393,18.31366 L57.1151124,14.75866 L57.1994747,14.75866 L57.1994747,23.27446 L57.1151124,23.27446 L54.6255253,19.69066 L51.1666685,19.69066 L51.1666685,27.57466 L54.7421966,29.20906 L54.7421966,29.29726 L44.3620365,29.29726 L44.3620365,29.20906 L47.2501011,27.57466 L47.2501011,10.94626 L44.3620365,9.31186 L44.3620365,9.22546 L60.1449775,9.22546 L60.1449775,15.53266 Z" id="Fill-4" fill="#002C5A" mask="url(#mask-4)"></path>
            </g>
        </g>
    </g>
</svg>